<svg width="72" height="72" viewBox="0 0 72 72" fill="none" xmlns="http://www.w3.org/2000/svg">
<path d="M67.4297 53.3672C66.8471 53.3672 66.375 53.8394 66.375 54.4219V66.7266C66.375 68.4713 64.9555 69.8906 63.2109 69.8906H27.4922C26.9096 69.8906 26.4375 70.3628 26.4375 70.9453C26.4375 71.5278 26.9096 72 27.4922 72H63.2109C66.1188 72 68.4844 69.6344 68.4844 66.7266V54.4219C68.4844 53.8394 68.0123 53.3672 67.4297 53.3672Z" fill="#6B6969"/>
<path d="M63.2109 7.03125H58.6406V2.46094C58.6406 1.10405 57.5366 0 56.1797 0H51.9609C50.604 0 49.5 1.10405 49.5 2.46094V7.03125H22.5V2.46094C22.5 1.10405 21.396 0 20.0391 0H15.8203C14.4634 0 13.3594 1.10405 13.3594 2.46094V7.03125H8.78906C5.88122 7.03125 3.51562 9.39684 3.51562 12.3047V66.7266C3.51562 69.6344 5.88122 72 8.78906 72H22.5703C23.1529 72 23.625 71.5278 23.625 70.9453C23.625 70.3628 23.1529 69.8906 22.5703 69.8906H8.78906C7.04447 69.8906 5.625 68.4713 5.625 66.7266V23.2031H45.7734C46.356 23.2031 46.8281 22.7309 46.8281 22.1484C46.8281 21.566 46.356 21.0938 45.7734 21.0938H5.625V12.3047C5.625 10.56 7.04447 9.14062 8.78906 9.14062H13.3594V13.7109C13.3594 15.0678 14.4634 16.1719 15.8203 16.1719H20.0391C21.396 16.1719 22.5 15.0678 22.5 13.7109V9.14062H49.5V13.7109C49.5 15.0678 50.604 16.1719 51.9609 16.1719H56.1797C57.5366 16.1719 58.6406 15.0678 58.6406 13.7109V9.14062H63.2109C64.9555 9.14062 66.375 10.56 66.375 12.3047V21.0938H50.6953C50.1127 21.0938 49.6406 21.566 49.6406 22.1484C49.6406 22.7309 50.1127 23.2031 50.6953 23.2031H66.375V49.5C66.375 50.0825 66.8471 50.5547 67.4297 50.5547C68.0123 50.5547 68.4844 50.0825 68.4844 49.5V12.3047C68.4844 9.39684 66.1188 7.03125 63.2109 7.03125ZM20.3906 13.7109C20.3906 13.9047 20.233 14.0625 20.0391 14.0625H15.8203C15.6264 14.0625 15.4688 13.9047 15.4688 13.7109V2.46094C15.4688 2.26716 15.6264 2.10938 15.8203 2.10938H20.0391C20.233 2.10938 20.3906 2.26716 20.3906 2.46094V13.7109ZM56.5312 13.7109C56.5312 13.9047 56.3736 14.0625 56.1797 14.0625H51.9609C51.767 14.0625 51.6094 13.9047 51.6094 13.7109V2.46094C51.6094 2.26716 51.767 2.10938 51.9609 2.10938H56.1797C56.3736 2.10938 56.5312 2.26716 56.5312 2.46094V13.7109Z" fill="#6B6969"/>
<path d="M46.9049 63.7989H56.5812C57.7557 63.7989 58.7111 62.8435 58.7111 61.6691V51.9929V41.2415V31.5653C58.7111 30.3909 57.7557 29.4355 56.5812 29.4355H46.9049H36H25.0951H15.4188C14.2443 29.4355 13.2889 30.3909 13.2889 31.5653V41.2415V51.9929V61.6691C13.2889 62.8435 14.2443 63.7989 15.4188 63.7989H25.0951H36H46.9049ZM15.3985 42.2962H24.0404V50.9382H15.3985V42.2962ZM26.1498 42.2962H34.9453V50.9382H26.1498V42.2962ZM56.6016 50.9382H47.9596V42.2962H56.6016V50.9382ZM45.8502 50.9382H37.0547V42.2962H45.8502V50.9382ZM37.0547 53.0475H45.8502V61.6895H37.0547V53.0475ZM56.6016 61.6691C56.6016 61.6804 56.5924 61.6895 56.581 61.6895H47.9595V53.0475H56.6016V61.6691ZM56.6016 31.5653V40.1868H47.9596V31.5449H56.5812C56.5924 31.5449 56.6016 31.554 56.6016 31.5653ZM45.8502 40.1868H37.0547V31.5449H45.8502V40.1868ZM34.9453 40.1868H26.1498V31.5449H34.9453V40.1868ZM15.3985 31.5653C15.3985 31.554 15.4076 31.5449 15.419 31.5449H24.0406V40.1868H15.3985V31.5653ZM15.3985 61.6691V53.0475H24.0404V61.6895H15.4188C15.4076 61.6895 15.3985 61.6804 15.3985 61.6691ZM26.1498 53.0475H34.9453V61.6895H26.1498V53.0475Z" fill="#6B6969"/>
</svg>
