<svg width="89" height="89" viewBox="0 0 89 89" fill="none" xmlns="http://www.w3.org/2000/svg">
<g clip-path="url(#clip0)">
<mask id="path-1-inside-1" fill="white">
<path d="M86.3232 61.0686C87.7992 61.0686 89 59.8678 89 58.3918V53.7235C89 52.2475 87.7992 51.0467 86.3232 51.0467H83.7544V33.5858C83.7544 32.8704 83.1745 32.2907 82.4592 32.2907C81.7439 32.2907 81.164 32.8705 81.164 33.5858V35.1195L80.8864 35.4658H74.72V33.5858C74.72 32.8704 74.1401 32.2907 73.4248 32.2907C72.7095 32.2907 72.1296 32.8705 72.1296 33.5858V36.5274L68.2468 39.6917C65.8331 41.6588 63.1031 43.1822 60.1979 44.2121C56.3593 42.6425 53.2434 39.505 51.7843 35.4552L47.2555 22.8832V11.0287C47.2555 9.55272 46.0547 8.35191 44.5787 8.35191H38.8146C37.3386 8.35191 36.1378 9.55272 36.1378 11.0287V15.1573H22.1926V11.0287C22.1926 9.55272 20.9918 8.35191 19.5159 8.35191H13.7517C12.2757 8.35191 11.0749 9.55272 11.0749 11.0287V26.5211C8.65542 28.9989 5.80012 30.9118 2.58587 32.2056C1.74297 32.4115 1.03341 33.1819 1.40557 34.0766C1.60878 34.5819 2.09446 34.8889 2.6076 34.8889C2.8965 34.9068 3.285 34.7124 3.55287 34.609C6.31361 33.4977 8.8336 31.972 11.0749 30.0623V51.0467H2.6773C1.2008 51.0467 0 52.2475 0 53.7235V58.3918C0 59.8678 1.2008 61.0686 2.67678 61.0686H11.0744V64.93C10.2694 64.6256 9.50284 64.214 8.79205 63.6979C7.7171 62.9171 6.27589 62.9157 5.20598 63.6939C4.28695 64.3621 3.2704 64.86 2.18415 65.1737C0.89817 65.5452 0 66.7387 0 68.0758V77.6257C0 79.2922 1.35586 80.6479 3.02218 80.6479H8.43518C9.15049 80.6479 9.73038 80.068 9.73038 79.3527C9.73038 78.6372 9.15049 78.0575 8.43518 78.0575H3.02218C2.7842 78.0575 2.59039 77.8639 2.59039 77.6257V68.0758C2.59039 67.8856 2.71902 67.7156 2.9031 67.6622C4.27895 67.2649 5.56632 66.6346 6.72958 65.7889C6.89142 65.6712 7.10349 65.6733 7.27001 65.7939C9.3902 67.3337 11.8985 68.1476 14.5237 68.1476C17.1488 68.1476 19.6572 67.3339 21.7775 65.7939C21.9439 65.6731 22.1587 65.6731 22.3249 65.7939C24.4451 67.3337 26.9534 68.1476 29.5786 68.1476C31.9227 68.1476 34.1727 67.4969 36.1375 66.2619V69.4732C36.1375 70.2212 36.6042 70.9012 37.2986 71.165C38.7006 71.6982 40.1769 71.9685 41.6868 71.9685C43.2052 71.9685 44.6891 71.6954 46.0978 71.1567C46.7902 70.8916 47.2554 70.2121 47.2554 69.4659V67.866C48.9187 67.5044 50.5045 66.7978 51.8872 65.7938C52.0535 65.6729 52.2684 65.6729 52.4346 65.7938C54.5547 67.3335 57.0631 68.1474 59.6882 68.1474C62.3134 68.1474 64.8217 67.3337 66.9419 65.7938C67.1083 65.6729 67.3231 65.6729 67.4893 65.7938C69.6095 67.3335 72.1178 68.1474 74.743 68.1474C77.0319 68.1474 79.2317 67.5284 81.1633 66.3491V68.5161C81.1633 69.2316 81.7432 69.8113 82.4585 69.8113C83.1738 69.8113 83.7537 69.2314 83.7537 68.5161V66.5678C84.4978 66.9859 85.2829 67.3261 86.1009 67.5823C86.2851 67.64 86.4091 67.8058 86.4091 67.9946V77.6255C86.4091 77.8637 86.2154 78.0573 85.9773 78.0573H14.8361C14.1208 78.0573 13.5409 78.6372 13.5409 79.3525C13.5409 80.068 14.1208 80.6477 14.8361 80.6477H85.9778C87.6443 80.6477 89 79.2919 89 77.6255V67.9946C89 66.6671 88.1462 65.508 86.8755 65.1101C85.868 64.7946 84.9229 64.3194 84.0662 63.697C83.9656 63.6239 83.8608 63.5601 83.7544 63.5006V61.0682H86.3232V61.0686ZM86.3232 53.6371C86.3708 53.6371 86.4096 53.6759 86.4096 53.7235V58.3918C86.4096 58.4394 86.3708 58.4782 86.3232 58.4782H83.7544V53.6373H86.3232V53.6371ZM47.2555 58.4782V53.6373H81.1638V58.4782H47.2555ZM81.1637 39.2608V45.1183H75.3209C76.8805 44.1096 78.2892 42.8457 79.4867 41.3523L81.1637 39.2608ZM72.1293 51.0467H47.2555V48.1033C48.5486 48.2747 49.8577 48.3625 51.1613 48.3625C54.2271 48.3625 57.2616 47.8801 60.1534 46.9583C61.9482 47.5759 63.8589 47.9103 65.8235 47.9103C68.016 47.9103 70.1471 47.5069 72.1295 46.7439V51.0467H72.1293ZM74.7198 51.0467V47.7089H81.1637V51.0467H74.7198ZM77.4656 39.7319C76.6552 40.7427 75.7314 41.6303 74.7198 42.3836V38.0564H78.8092L77.4656 39.7319ZM69.8831 41.6998L72.1293 39.8692V43.929C70.184 44.8353 68.0405 45.3198 65.8232 45.3198C65.3366 45.3198 64.8546 45.2932 64.3771 45.2464C66.3286 44.2754 68.1782 43.0892 69.8831 41.6998ZM49.347 36.3334C50.7036 40.0985 53.2816 43.1893 56.5336 45.2282C54.7731 45.5864 52.9731 45.7717 51.1611 45.7717C49.8565 45.7717 48.546 45.6758 47.2554 45.4879V30.5282L49.347 36.3334ZM36.1375 17.7478V20.9859H22.1923V17.7478H36.1375ZM22.1923 51.0467V44.2653H36.1375V51.0467H22.1923ZM36.1375 41.6748H22.1923V38.4367H36.1375V41.6748ZM22.1923 35.8461V27.5655L25.2089 33.0364C25.7427 34.0046 26.3337 34.9429 26.9727 35.8461H22.1923ZM13.665 11.0287C13.665 10.9811 13.7037 10.9423 13.7514 10.9423H19.5155C19.5631 10.9423 19.6019 10.9811 19.6019 11.0287V51.0465H13.665V11.0287ZM13.665 65.5186V61.0686H19.6019V64.1337C18.0748 65.067 16.3346 65.557 14.5237 65.557C14.2353 65.557 13.949 65.5433 13.665 65.5186ZM35.3102 63.6979C33.6354 64.914 31.6534 65.557 29.5786 65.557C27.504 65.557 25.522 64.9142 23.8471 63.6979C23.3502 63.337 22.7743 63.1453 22.1923 63.1182V61.0686H36.1375V63.2712C35.8447 63.3696 35.5663 63.5121 35.3102 63.6979ZM44.665 68.9154C43.7061 69.2227 42.7068 69.3779 41.6869 69.3779C40.6742 69.3779 39.6815 69.2244 38.728 68.9213V58.8488C38.728 58.1333 38.1481 57.5536 37.4328 57.5536C36.8463 57.5536 36.3516 57.9435 36.1921 58.4782H2.67678C2.62915 58.4782 2.59039 58.4394 2.59039 58.3918V53.7235C2.59039 53.6759 2.62915 53.6371 2.67678 53.6371H36.4413C36.679 53.9196 37.0346 54.0995 37.4327 54.0995C38.148 54.0995 38.7279 53.5196 38.7279 52.8043V31.3193C38.7279 30.6038 38.148 30.0241 37.4327 30.0241C36.7174 30.0241 36.1375 30.604 36.1375 31.3193V35.8461H30.2249C29.1911 34.5814 28.2674 33.2182 27.4774 31.7857L22.9509 23.5765H36.1375V24.8917C36.1375 25.6071 36.7174 26.1869 37.4327 26.1869C38.148 26.1869 38.7279 25.607 38.7279 24.8917V11.0287C38.7279 10.9811 38.7666 10.9423 38.8143 10.9423H44.5784C44.626 10.9423 44.6648 10.9811 44.6648 11.0287V68.9154H44.665ZM65.42 63.6979C63.7452 64.914 61.7632 65.557 59.6884 65.557C57.6136 65.557 55.6316 64.9142 53.9568 63.6979C52.8827 62.9179 51.4392 62.9176 50.365 63.6979C49.4259 64.3798 48.3679 64.8862 47.2554 65.197V61.0686H72.1293V65.2034C71.0171 64.8954 69.9646 64.3897 69.0118 63.6979C67.9378 62.9179 66.4943 62.9176 65.42 63.6979ZM81.1637 63.323C80.9232 63.4168 80.6914 63.5408 80.4749 63.6981C78.8001 64.9142 76.8181 65.5572 74.7433 65.5572C74.7355 65.5572 74.7277 65.5568 74.7198 65.5567V61.0688H81.1637V63.323Z"/>
</mask>
<path d="M86.3232 61.0686C87.7992 61.0686 89 59.8678 89 58.3918V53.7235C89 52.2475 87.7992 51.0467 86.3232 51.0467H83.7544V33.5858C83.7544 32.8704 83.1745 32.2907 82.4592 32.2907C81.7439 32.2907 81.164 32.8705 81.164 33.5858V35.1195L80.8864 35.4658H74.72V33.5858C74.72 32.8704 74.1401 32.2907 73.4248 32.2907C72.7095 32.2907 72.1296 32.8705 72.1296 33.5858V36.5274L68.2468 39.6917C65.8331 41.6588 63.1031 43.1822 60.1979 44.2121C56.3593 42.6425 53.2434 39.505 51.7843 35.4552L47.2555 22.8832V11.0287C47.2555 9.55272 46.0547 8.35191 44.5787 8.35191H38.8146C37.3386 8.35191 36.1378 9.55272 36.1378 11.0287V15.1573H22.1926V11.0287C22.1926 9.55272 20.9918 8.35191 19.5159 8.35191H13.7517C12.2757 8.35191 11.0749 9.55272 11.0749 11.0287V26.5211C8.65542 28.9989 5.80012 30.9118 2.58587 32.2056C1.74297 32.4115 1.03341 33.1819 1.40557 34.0766C1.60878 34.5819 2.09446 34.8889 2.6076 34.8889C2.8965 34.9068 3.285 34.7124 3.55287 34.609C6.31361 33.4977 8.8336 31.972 11.0749 30.0623V51.0467H2.6773C1.2008 51.0467 0 52.2475 0 53.7235V58.3918C0 59.8678 1.2008 61.0686 2.67678 61.0686H11.0744V64.93C10.2694 64.6256 9.50284 64.214 8.79205 63.6979C7.7171 62.9171 6.27589 62.9157 5.20598 63.6939C4.28695 64.3621 3.2704 64.86 2.18415 65.1737C0.89817 65.5452 0 66.7387 0 68.0758V77.6257C0 79.2922 1.35586 80.6479 3.02218 80.6479H8.43518C9.15049 80.6479 9.73038 80.068 9.73038 79.3527C9.73038 78.6372 9.15049 78.0575 8.43518 78.0575H3.02218C2.7842 78.0575 2.59039 77.8639 2.59039 77.6257V68.0758C2.59039 67.8856 2.71902 67.7156 2.9031 67.6622C4.27895 67.2649 5.56632 66.6346 6.72958 65.7889C6.89142 65.6712 7.10349 65.6733 7.27001 65.7939C9.3902 67.3337 11.8985 68.1476 14.5237 68.1476C17.1488 68.1476 19.6572 67.3339 21.7775 65.7939C21.9439 65.6731 22.1587 65.6731 22.3249 65.7939C24.4451 67.3337 26.9534 68.1476 29.5786 68.1476C31.9227 68.1476 34.1727 67.4969 36.1375 66.2619V69.4732C36.1375 70.2212 36.6042 70.9012 37.2986 71.165C38.7006 71.6982 40.1769 71.9685 41.6868 71.9685C43.2052 71.9685 44.6891 71.6954 46.0978 71.1567C46.7902 70.8916 47.2554 70.2121 47.2554 69.4659V67.866C48.9187 67.5044 50.5045 66.7978 51.8872 65.7938C52.0535 65.6729 52.2684 65.6729 52.4346 65.7938C54.5547 67.3335 57.0631 68.1474 59.6882 68.1474C62.3134 68.1474 64.8217 67.3337 66.9419 65.7938C67.1083 65.6729 67.3231 65.6729 67.4893 65.7938C69.6095 67.3335 72.1178 68.1474 74.743 68.1474C77.0319 68.1474 79.2317 67.5284 81.1633 66.3491V68.5161C81.1633 69.2316 81.7432 69.8113 82.4585 69.8113C83.1738 69.8113 83.7537 69.2314 83.7537 68.5161V66.5678C84.4978 66.9859 85.2829 67.3261 86.1009 67.5823C86.2851 67.64 86.4091 67.8058 86.4091 67.9946V77.6255C86.4091 77.8637 86.2154 78.0573 85.9773 78.0573H14.8361C14.1208 78.0573 13.5409 78.6372 13.5409 79.3525C13.5409 80.068 14.1208 80.6477 14.8361 80.6477H85.9778C87.6443 80.6477 89 79.2919 89 77.6255V67.9946C89 66.6671 88.1462 65.508 86.8755 65.1101C85.868 64.7946 84.9229 64.3194 84.0662 63.697C83.9656 63.6239 83.8608 63.5601 83.7544 63.5006V61.0682H86.3232V61.0686ZM86.3232 53.6371C86.3708 53.6371 86.4096 53.6759 86.4096 53.7235V58.3918C86.4096 58.4394 86.3708 58.4782 86.3232 58.4782H83.7544V53.6373H86.3232V53.6371ZM47.2555 58.4782V53.6373H81.1638V58.4782H47.2555ZM81.1637 39.2608V45.1183H75.3209C76.8805 44.1096 78.2892 42.8457 79.4867 41.3523L81.1637 39.2608ZM72.1293 51.0467H47.2555V48.1033C48.5486 48.2747 49.8577 48.3625 51.1613 48.3625C54.2271 48.3625 57.2616 47.8801 60.1534 46.9583C61.9482 47.5759 63.8589 47.9103 65.8235 47.9103C68.016 47.9103 70.1471 47.5069 72.1295 46.7439V51.0467H72.1293ZM74.7198 51.0467V47.7089H81.1637V51.0467H74.7198ZM77.4656 39.7319C76.6552 40.7427 75.7314 41.6303 74.7198 42.3836V38.0564H78.8092L77.4656 39.7319ZM69.8831 41.6998L72.1293 39.8692V43.929C70.184 44.8353 68.0405 45.3198 65.8232 45.3198C65.3366 45.3198 64.8546 45.2932 64.3771 45.2464C66.3286 44.2754 68.1782 43.0892 69.8831 41.6998ZM49.347 36.3334C50.7036 40.0985 53.2816 43.1893 56.5336 45.2282C54.7731 45.5864 52.9731 45.7717 51.1611 45.7717C49.8565 45.7717 48.546 45.6758 47.2554 45.4879V30.5282L49.347 36.3334ZM36.1375 17.7478V20.9859H22.1923V17.7478H36.1375ZM22.1923 51.0467V44.2653H36.1375V51.0467H22.1923ZM36.1375 41.6748H22.1923V38.4367H36.1375V41.6748ZM22.1923 35.8461V27.5655L25.2089 33.0364C25.7427 34.0046 26.3337 34.9429 26.9727 35.8461H22.1923ZM13.665 11.0287C13.665 10.9811 13.7037 10.9423 13.7514 10.9423H19.5155C19.5631 10.9423 19.6019 10.9811 19.6019 11.0287V51.0465H13.665V11.0287ZM13.665 65.5186V61.0686H19.6019V64.1337C18.0748 65.067 16.3346 65.557 14.5237 65.557C14.2353 65.557 13.949 65.5433 13.665 65.5186ZM35.3102 63.6979C33.6354 64.914 31.6534 65.557 29.5786 65.557C27.504 65.557 25.522 64.9142 23.8471 63.6979C23.3502 63.337 22.7743 63.1453 22.1923 63.1182V61.0686H36.1375V63.2712C35.8447 63.3696 35.5663 63.5121 35.3102 63.6979ZM44.665 68.9154C43.7061 69.2227 42.7068 69.3779 41.6869 69.3779C40.6742 69.3779 39.6815 69.2244 38.728 68.9213V58.8488C38.728 58.1333 38.1481 57.5536 37.4328 57.5536C36.8463 57.5536 36.3516 57.9435 36.1921 58.4782H2.67678C2.62915 58.4782 2.59039 58.4394 2.59039 58.3918V53.7235C2.59039 53.6759 2.62915 53.6371 2.67678 53.6371H36.4413C36.679 53.9196 37.0346 54.0995 37.4327 54.0995C38.148 54.0995 38.7279 53.5196 38.7279 52.8043V31.3193C38.7279 30.6038 38.148 30.0241 37.4327 30.0241C36.7174 30.0241 36.1375 30.604 36.1375 31.3193V35.8461H30.2249C29.1911 34.5814 28.2674 33.2182 27.4774 31.7857L22.9509 23.5765H36.1375V24.8917C36.1375 25.6071 36.7174 26.1869 37.4327 26.1869C38.148 26.1869 38.7279 25.607 38.7279 24.8917V11.0287C38.7279 10.9811 38.7666 10.9423 38.8143 10.9423H44.5784C44.626 10.9423 44.6648 10.9811 44.6648 11.0287V68.9154H44.665ZM65.42 63.6979C63.7452 64.914 61.7632 65.557 59.6884 65.557C57.6136 65.557 55.6316 64.9142 53.9568 63.6979C52.8827 62.9179 51.4392 62.9176 50.365 63.6979C49.4259 64.3798 48.3679 64.8862 47.2554 65.197V61.0686H72.1293V65.2034C71.0171 64.8954 69.9646 64.3897 69.0118 63.6979C67.9378 62.9179 66.4943 62.9176 65.42 63.6979ZM81.1637 63.323C80.9232 63.4168 80.6914 63.5408 80.4749 63.6981C78.8001 64.9142 76.8181 65.5572 74.7433 65.5572C74.7355 65.5572 74.7277 65.5568 74.7198 65.5567V61.0688H81.1637V63.323Z" fill="#6B6969" stroke="white" stroke-width="0.6" mask="url(#path-1-inside-1)"/>
</g>
<defs>
<clipPath id="clip0">
<rect width="89" height="89" fill="white"/>
</clipPath>
</defs>
</svg>
