<svg width="82" height="82" viewBox="0 0 82 82" fill="none" xmlns="http://www.w3.org/2000/svg">
<g clip-path="url(#clip0)">
<path d="M61.7167 62.5116L61.7174 62.5225L61.7197 62.5332C61.7392 62.6242 61.7462 62.7479 61.7474 62.8823C61.7481 62.963 61.7469 63.0349 61.7457 63.1037C61.7449 63.1557 61.7441 63.2058 61.7441 63.2565V74.2494C61.7441 76.0439 60.284 77.504 58.4895 77.504H23.7303C21.9358 77.504 20.4757 76.0439 20.4757 74.2494V63.2564C20.4757 63.2058 20.4748 63.1544 20.4739 63.1009C20.4726 63.0268 20.4713 62.9485 20.4721 62.8625C20.4735 62.7199 20.4813 62.5888 20.5027 62.4938L20.5053 62.4826L20.5061 62.4711C20.911 56.6116 25.8045 51.9671 31.765 51.9671H50.4546C56.4289 51.9671 61.3317 56.633 61.7167 62.5116ZM59.2921 61.6896L59.4741 61.6897L59.4394 61.511C58.6221 57.296 54.9055 54.1028 50.4546 54.1028H31.765C27.3236 54.1028 23.613 57.2822 22.7851 61.484L22.7498 61.6628L22.9321 61.663L28.2187 61.6668L28.2187 61.6672L28.23 61.6664C28.2629 61.6639 28.2894 61.662 28.3156 61.662C28.3429 61.662 28.3709 61.6638 28.4028 61.6665L28.4028 61.667L28.4151 61.667L59.2921 61.6896ZM22.7615 63.7985L22.6113 63.7984V63.9485V74.2494C22.6113 74.8665 23.1132 75.3683 23.7303 75.3683H58.4893C59.1064 75.3683 59.6082 74.8667 59.6084 74.2496V63.9754V63.8255L59.4585 63.8254L29.5335 63.8034L29.3834 63.8033V63.9534V67.5342C29.3834 68.124 28.9052 68.602 28.3156 68.602C27.7258 68.602 27.2477 68.124 27.2477 67.5342V63.9517V63.8018L27.0978 63.8017L22.7615 63.7985Z" fill="#6B6969" stroke="white" stroke-width="0.3"/>
<path d="M11.4885 64.4885C11.4885 65.0644 11.0217 65.5312 10.4459 65.5312C9.87 65.5312 9.40317 65.0644 9.40317 64.4885C9.40317 63.9127 9.87 63.4459 10.4459 63.4459C11.0217 63.4459 11.4885 63.9127 11.4885 64.4885Z" fill="#6B6969" stroke="white" stroke-width="0.3"/>
<mask id="path-3-inside-1" fill="white">
<path d="M75.4695 58.3422L67.2914 52.4142V47.0079C67.2914 46.3353 66.7463 45.7901 66.0736 45.7901C65.4009 45.7901 64.8558 46.3353 64.8558 47.0079L64.855 77.9782C64.8465 78.8542 64.1658 79.5643 63.3293 79.5643H18.671C17.831 79.5643 17.1475 78.848 17.1449 77.9666L17.1447 37.5381H21.3954V40.5173C21.3954 41.5151 22.1179 42.3456 23.067 42.5176C22.8623 49.5157 32.623 48.9249 32.1887 42.5176C33.1376 42.3456 33.8602 41.5151 33.8602 40.5173V37.5381H48.1398V40.5173C48.1398 41.5151 48.8624 42.3456 49.8113 42.5176C49.6067 49.5157 59.3674 48.9249 58.933 42.5176C59.882 42.3456 60.6046 41.5151 60.6046 40.5173V37.5381H64.8559V41.3248C64.8559 41.9975 65.4011 42.5426 66.0738 42.5426C66.7463 42.5426 67.2916 41.9975 67.2916 41.3248V30.8515C67.8768 30.844 67.8129 30.8749 68.5906 30.8161C71.9398 30.4648 74.5619 27.543 74.5619 24.0025V13.5351C74.5619 9.75848 71.5785 6.68604 67.9115 6.68604H52.2472V4.30868C52.247 1.93293 50.3141 0 47.9383 0H34.0617C31.686 0 29.753 1.93293 29.753 4.30868V6.68604H14.0886C10.9946 6.68604 8.38724 8.87346 7.64812 11.8255C7.51118 12.3721 7.43831 12.9451 7.43831 13.5351V24.0023C7.43831 26.2097 8.45867 28.1755 10.038 29.4289C11.1858 30.329 12.687 30.926 14.7092 30.8514V52.4137L6.53022 58.3425C5.37197 59.1832 4.68042 60.5295 4.68042 61.9441V74.9318C4.68042 77.4006 6.72642 79.409 9.24135 79.409H14.9735C15.5456 80.9228 16.9868 82 18.671 82H63.3293C65.0137 82 66.4549 80.9228 67.0272 79.4091H72.7588C75.2736 79.4091 77.3198 77.4006 77.3198 74.932V61.9443C77.3198 60.5298 76.6284 59.1833 75.4695 58.3422ZM19.1683 9.1217H62.8316C61.8528 10.3147 61.2612 11.8548 61.2612 13.5351V24.0023C61.2612 25.6827 61.8528 27.2227 62.8316 28.4157H58.933V22.9475V20.3017C58.933 18.3241 57.3241 16.7152 55.3465 16.7152H36.9692C36.2965 16.7152 35.7514 17.2604 35.7514 17.933C35.7514 18.6057 36.2965 19.1508 36.9692 19.1508H55.3465C55.981 19.1508 56.4974 19.667 56.4974 20.3017V21.7297H25.5027V20.3017C25.5027 19.6672 26.019 19.1508 26.6535 19.1508H31.2861C31.9587 19.1508 32.5039 18.6057 32.5039 17.933C32.5039 17.2604 31.9587 16.7152 31.2861 16.7152H26.6535C24.6759 16.7152 23.067 18.3241 23.067 20.3017V22.9475V28.4157H19.1685C20.1472 27.2227 20.7388 25.6827 20.7388 24.0023V13.5351C20.7388 11.8548 20.147 10.3147 19.1683 9.1217ZM49.8113 24.1655V28.4159H32.1887V24.1655H49.8113ZM56.4974 24.1655V35.1019H52.247V24.1655H56.4974ZM25.5027 24.1655H29.753V35.1019H25.5027V24.1655ZM32.1887 35.1024V30.8514H49.8113V35.1024H32.1887ZM29.753 43.1012C29.4843 46.2081 25.0718 45.4855 25.5027 42.5521H29.753V43.1012ZM31.4246 40.1164H30.9709H24.2848H23.8311V37.5381H31.4246V40.1164ZM56.4974 43.1012C56.2286 46.2081 51.8162 45.4855 52.247 42.5521H56.4974V43.1012ZM58.1689 40.1164H57.7152H51.0292H50.5754V37.5381H58.1689V40.1164ZM64.8558 35.1024H58.933V30.8514H64.8558V35.1024ZM72.1261 13.5351V24.0023C72.1261 26.3598 70.3517 28.2916 68.1279 28.4101C68.0562 28.414 67.9839 28.4159 67.9114 28.4159C65.5875 28.4159 63.6969 26.436 63.6969 24.0025V13.5351C63.6969 11.1016 65.5875 9.1217 67.9114 9.1217C70.2354 9.1217 72.1261 11.1016 72.1261 13.5351ZM32.1887 4.30868C32.1887 3.27584 33.029 2.43566 34.0617 2.43566H47.9383C48.9711 2.43566 49.8113 3.276 49.8113 4.30868V6.68604H32.1887V4.30868ZM13.8719 28.4101C11.6482 28.2916 9.87381 26.36 9.87381 24.0023V13.5351C9.87381 11.1016 11.7645 9.1217 14.0885 9.1217C16.4125 9.1217 18.303 11.1016 18.303 13.5351V24.0023C18.303 26.4359 16.4123 28.4157 14.0885 28.4157C14.0159 28.4159 13.9437 28.414 13.8719 28.4101ZM23.067 30.8515V35.1026H17.1447V30.8515H23.067ZM7.9601 60.3142L14.7091 55.4219V65.9868C12.1442 67.2546 9.01056 68.2336 7.11592 66.792V61.9441C7.11592 61.3073 7.43174 60.6978 7.9601 60.3142ZM7.11592 74.9318V69.5483C9.4393 70.4034 12.2387 69.7357 14.7091 68.6694V76.9735H9.24119C8.06933 76.9735 7.11592 76.0577 7.11592 74.9318ZM74.0393 60.3139C74.5683 60.6978 74.8841 61.3073 74.8841 61.9443V66.7922C72.9896 68.2341 69.8563 67.2549 67.2914 65.9873V55.4226L74.0393 60.3139ZM74.8841 74.9318C74.8841 76.0576 73.9307 76.9733 72.7588 76.9733H67.2914V68.6694C69.7623 69.7357 72.5615 70.4031 74.8841 69.548V74.9318Z"/>
</mask>
<path d="M75.4695 58.3422L67.2914 52.4142V47.0079C67.2914 46.3353 66.7463 45.7901 66.0736 45.7901C65.4009 45.7901 64.8558 46.3353 64.8558 47.0079L64.855 77.9782C64.8465 78.8542 64.1658 79.5643 63.3293 79.5643H18.671C17.831 79.5643 17.1475 78.848 17.1449 77.9666L17.1447 37.5381H21.3954V40.5173C21.3954 41.5151 22.1179 42.3456 23.067 42.5176C22.8623 49.5157 32.623 48.9249 32.1887 42.5176C33.1376 42.3456 33.8602 41.5151 33.8602 40.5173V37.5381H48.1398V40.5173C48.1398 41.5151 48.8624 42.3456 49.8113 42.5176C49.6067 49.5157 59.3674 48.9249 58.933 42.5176C59.882 42.3456 60.6046 41.5151 60.6046 40.5173V37.5381H64.8559V41.3248C64.8559 41.9975 65.4011 42.5426 66.0738 42.5426C66.7463 42.5426 67.2916 41.9975 67.2916 41.3248V30.8515C67.8768 30.844 67.8129 30.8749 68.5906 30.8161C71.9398 30.4648 74.5619 27.543 74.5619 24.0025V13.5351C74.5619 9.75848 71.5785 6.68604 67.9115 6.68604H52.2472V4.30868C52.247 1.93293 50.3141 0 47.9383 0H34.0617C31.686 0 29.753 1.93293 29.753 4.30868V6.68604H14.0886C10.9946 6.68604 8.38724 8.87346 7.64812 11.8255C7.51118 12.3721 7.43831 12.9451 7.43831 13.5351V24.0023C7.43831 26.2097 8.45867 28.1755 10.038 29.4289C11.1858 30.329 12.687 30.926 14.7092 30.8514V52.4137L6.53022 58.3425C5.37197 59.1832 4.68042 60.5295 4.68042 61.9441V74.9318C4.68042 77.4006 6.72642 79.409 9.24135 79.409H14.9735C15.5456 80.9228 16.9868 82 18.671 82H63.3293C65.0137 82 66.4549 80.9228 67.0272 79.4091H72.7588C75.2736 79.4091 77.3198 77.4006 77.3198 74.932V61.9443C77.3198 60.5298 76.6284 59.1833 75.4695 58.3422ZM19.1683 9.1217H62.8316C61.8528 10.3147 61.2612 11.8548 61.2612 13.5351V24.0023C61.2612 25.6827 61.8528 27.2227 62.8316 28.4157H58.933V22.9475V20.3017C58.933 18.3241 57.3241 16.7152 55.3465 16.7152H36.9692C36.2965 16.7152 35.7514 17.2604 35.7514 17.933C35.7514 18.6057 36.2965 19.1508 36.9692 19.1508H55.3465C55.981 19.1508 56.4974 19.667 56.4974 20.3017V21.7297H25.5027V20.3017C25.5027 19.6672 26.019 19.1508 26.6535 19.1508H31.2861C31.9587 19.1508 32.5039 18.6057 32.5039 17.933C32.5039 17.2604 31.9587 16.7152 31.2861 16.7152H26.6535C24.6759 16.7152 23.067 18.3241 23.067 20.3017V22.9475V28.4157H19.1685C20.1472 27.2227 20.7388 25.6827 20.7388 24.0023V13.5351C20.7388 11.8548 20.147 10.3147 19.1683 9.1217ZM49.8113 24.1655V28.4159H32.1887V24.1655H49.8113ZM56.4974 24.1655V35.1019H52.247V24.1655H56.4974ZM25.5027 24.1655H29.753V35.1019H25.5027V24.1655ZM32.1887 35.1024V30.8514H49.8113V35.1024H32.1887ZM29.753 43.1012C29.4843 46.2081 25.0718 45.4855 25.5027 42.5521H29.753V43.1012ZM31.4246 40.1164H30.9709H24.2848H23.8311V37.5381H31.4246V40.1164ZM56.4974 43.1012C56.2286 46.2081 51.8162 45.4855 52.247 42.5521H56.4974V43.1012ZM58.1689 40.1164H57.7152H51.0292H50.5754V37.5381H58.1689V40.1164ZM64.8558 35.1024H58.933V30.8514H64.8558V35.1024ZM72.1261 13.5351V24.0023C72.1261 26.3598 70.3517 28.2916 68.1279 28.4101C68.0562 28.414 67.9839 28.4159 67.9114 28.4159C65.5875 28.4159 63.6969 26.436 63.6969 24.0025V13.5351C63.6969 11.1016 65.5875 9.1217 67.9114 9.1217C70.2354 9.1217 72.1261 11.1016 72.1261 13.5351ZM32.1887 4.30868C32.1887 3.27584 33.029 2.43566 34.0617 2.43566H47.9383C48.9711 2.43566 49.8113 3.276 49.8113 4.30868V6.68604H32.1887V4.30868ZM13.8719 28.4101C11.6482 28.2916 9.87381 26.36 9.87381 24.0023V13.5351C9.87381 11.1016 11.7645 9.1217 14.0885 9.1217C16.4125 9.1217 18.303 11.1016 18.303 13.5351V24.0023C18.303 26.4359 16.4123 28.4157 14.0885 28.4157C14.0159 28.4159 13.9437 28.414 13.8719 28.4101ZM23.067 30.8515V35.1026H17.1447V30.8515H23.067ZM7.9601 60.3142L14.7091 55.4219V65.9868C12.1442 67.2546 9.01056 68.2336 7.11592 66.792V61.9441C7.11592 61.3073 7.43174 60.6978 7.9601 60.3142ZM7.11592 74.9318V69.5483C9.4393 70.4034 12.2387 69.7357 14.7091 68.6694V76.9735H9.24119C8.06933 76.9735 7.11592 76.0577 7.11592 74.9318ZM74.0393 60.3139C74.5683 60.6978 74.8841 61.3073 74.8841 61.9443V66.7922C72.9896 68.2341 69.8563 67.2549 67.2914 65.9873V55.4226L74.0393 60.3139ZM74.8841 74.9318C74.8841 76.0576 73.9307 76.9733 72.7588 76.9733H67.2914V68.6694C69.7623 69.7357 72.5615 70.4031 74.8841 69.548V74.9318Z" fill="#6B6969" stroke="white" stroke-width="0.6" mask="url(#path-3-inside-1)"/>
<path d="M72.6541 64.4885C72.6541 65.0644 72.1873 65.5312 71.6114 65.5312C71.0355 65.5312 70.5687 65.0644 70.5687 64.4885C70.5687 63.9127 71.0355 63.4459 71.6114 63.4459C72.1873 63.4459 72.6541 63.9127 72.6541 64.4885Z" fill="#6B6969" stroke="white" stroke-width="0.3"/>
<path d="M51.6643 70.8792H51.8143V70.7292V68.8593V68.7093H51.6643H42.3992H42.2492V68.8593V70.7292V70.8792H42.3992H51.6643ZM41.1816 66.5738H52.8821C53.4718 66.5738 53.9499 67.0519 53.9499 67.6417V71.9472C53.9499 72.537 53.4719 73.015 52.8821 73.015H41.1816C40.5918 73.015 40.1137 72.537 40.1137 71.9472V67.6417C40.1137 67.0519 40.5918 66.5738 41.1816 66.5738Z" fill="#6B6969" stroke="white" stroke-width="0.3"/>
</g>
<defs>
<clipPath id="clip0">
<rect width="82" height="82" fill="white"/>
</clipPath>
</defs>
</svg>
