<svg width="72" height="72" viewBox="0 0 72 72" fill="none" xmlns="http://www.w3.org/2000/svg">
<g clip-path="url(#clip0)">
<path d="M10.7391 7.81454L10.7392 7.81516C10.882 8.39407 11.4043 8.8 11.9999 8.8H59.9999C60.5954 8.8 61.1183 8.39412 61.2639 7.81432L62.7638 1.81507C62.8604 1.42378 62.774 1.01319 62.5277 0.69953C62.2806 0.384853 61.9006 0.2 61.4999 0.2H10.5C10.0989 0.2 9.71653 0.385279 9.47292 0.698695L10.7391 7.81454ZM10.7391 7.81454L9.23909 1.81482C9.23907 1.81477 9.23906 1.81472 9.23905 1.81467M10.7391 7.81454L9.23905 1.81467M9.23905 1.81467C9.14275 1.42649 9.22902 1.01268 9.47289 0.698733L9.23905 1.81467ZM58.83 6.20005H58.9862L59.0241 6.04855L59.774 3.0486L59.8361 2.80009H59.58H12.4231H12.1669L12.229 3.0486L12.979 6.04855L13.0169 6.20005H13.173H58.83Z" fill="#6B6969" stroke="white" stroke-width="0.4"/>
<path d="M12.2 28.5C12.2 27.7825 12.7825 27.2 13.5 27.2C14.2176 27.2 14.8001 27.7825 14.8001 28.5V70.5C14.8001 71.2175 14.2176 71.8 13.5 71.8C12.7825 71.8 12.2 71.2175 12.2 70.5001V28.5Z" fill="#6B6969" stroke="white" stroke-width="0.4"/>
<path d="M57.1999 28.5C57.1999 27.7825 57.7824 27.2 58.5 27.2C59.2175 27.2 59.8 27.7825 59.8 28.5V70.5001C59.8 71.2176 59.2175 71.8001 58.5 71.8001C57.7824 71.8001 57.1999 71.2176 57.1999 70.5001V28.5Z" fill="#6B6969" stroke="white" stroke-width="0.4"/>
<path d="M21.1999 34.5001C21.1999 33.7826 21.7824 33.2001 22.5 33.2001C23.2175 33.2001 23.8 33.7824 23.8 34.5001V70.5001C23.8 71.2176 23.2175 71.8002 22.5 71.8002C21.7824 71.8002 21.1999 71.2176 21.1999 70.5001V34.5001Z" fill="#6B6969" stroke="white" stroke-width="0.4"/>
<path d="M30.1999 34.5001C30.1999 33.7826 30.7824 33.2001 31.5 33.2001C32.2175 33.2001 32.8 33.7824 32.8 34.5001V70.5001C32.8 71.2176 32.2175 71.8002 31.5 71.8002C30.7824 71.8002 30.1999 71.2176 30.1999 70.5001V34.5001Z" fill="#6B6969" stroke="white" stroke-width="0.4"/>
<path d="M39.2 34.5001C39.2 33.7826 39.7825 33.2001 40.5 33.2001C41.2176 33.2001 41.8001 33.7824 41.8001 34.5001V70.5001C41.8001 71.2177 41.2176 71.8002 40.5 71.8002C39.7825 71.8002 39.2 71.2177 39.2 70.5001V34.5001Z" fill="#6B6969" stroke="white" stroke-width="0.4"/>
<path d="M48.2 34.5001C48.2 33.7826 48.7825 33.2001 49.5 33.2001C50.2176 33.2001 50.8001 33.7824 50.8001 34.5001V70.5001C50.8001 71.2177 50.2176 71.8002 49.5 71.8002C48.7825 71.8002 48.2 71.2177 48.2 70.5001V34.5001Z" fill="#6B6969" stroke="white" stroke-width="0.4"/>
<path d="M23.7999 18V18C23.7999 24.5075 18.5075 29.7999 12 29.7999C5.49246 29.7999 0.2 24.5075 0.2 18C0.2 11.4925 5.49246 6.20004 12 6.1999C12.7175 6.1999 13.3 6.7824 13.3 7.49995C13.3 8.21749 12.7175 8.79999 12 8.79999C6.92754 8.79999 2.79995 12.9276 2.79995 18C2.79995 23.0724 6.92754 27.2 12 27.2C17.0724 27.2 21.2 23.0724 21.2 18C21.2 17.2825 21.7825 16.6999 22.5 16.6999C23.2175 16.6999 23.8 17.2824 23.7999 18Z" fill="#6B6969" stroke="white" stroke-width="0.4"/>
<path d="M58.7 7.5001C58.7 6.78256 59.2825 6.20005 60.0001 6.20005C66.5076 6.20005 71.8 11.4925 71.8 18C71.8 24.5075 66.5074 29.8 59.9999 29.8C53.4925 29.8 48.2 24.5075 48.2 18C48.2 17.2825 48.7825 16.7 49.5 16.7C50.2176 16.7 50.8001 17.2825 50.8001 18C50.8001 23.0724 54.9277 27.2 60.0001 27.2C65.0725 27.2 69.2001 23.0724 69.2001 18C69.2001 12.9276 65.0725 8.80001 60.0001 8.80001C59.2825 8.80001 58.7 8.21762 58.7 7.5001Z" fill="#6B6969" stroke="white" stroke-width="0.4"/>
<path d="M6.19988 18C6.19988 14.8014 8.80133 12.1999 11.9999 12.1999C15.1985 12.1999 17.8 14.8014 17.8 18C17.8 21.1986 15.1985 23.8 11.9999 23.8C8.80133 23.8 6.19988 21.1986 6.19988 18ZM8.79997 18C8.79997 19.7665 10.2335 21.1999 11.9999 21.1999C13.7664 21.1999 15.1999 19.7665 15.1999 18C15.1999 16.2335 13.7664 14.8 11.9999 14.8C10.2335 14.8 8.79997 16.2335 8.79997 18Z" fill="#6B6969" stroke="white" stroke-width="0.4"/>
<path d="M54.2 18C54.2 14.8014 56.8015 12.1999 60 12.1999C63.1985 12.1999 65.8 14.8014 65.8001 18C65.8001 21.1986 63.1986 23.8 60 23.8C56.8015 23.8 54.2 21.1986 54.2 18ZM56.8001 18C56.8001 19.7665 58.2336 21.1999 60 21.1999C61.7665 21.1999 63.2 19.7665 63.2 18C63.2 16.2335 61.7665 14.8 60 14.8C58.2336 14.8 56.8001 16.2335 56.8001 18Z" fill="#6B6969" stroke="white" stroke-width="0.4"/>
<path d="M28.5 18.2H43.5C44.2175 18.2 44.8001 18.7825 44.8001 19.5C44.8001 20.2176 44.2176 20.8001 43.5001 20.8001H28.5C27.7825 20.8001 27.2 20.2176 27.2 19.5C27.2 18.7825 27.7825 18.2 28.5 18.2Z" fill="#6B6969" stroke="white" stroke-width="0.4"/>
<path d="M25.4999 24.2001H46.5C47.2176 24.2001 47.7999 24.7824 47.7999 25.5C47.7999 26.2175 47.2174 26.8 46.4999 26.8H25.4999C24.7824 26.8 24.1999 26.2176 24.1999 25.5001C24.1999 24.7826 24.7824 24.2001 25.4999 24.2001Z" fill="#6B6969" stroke="white" stroke-width="0.4"/>
</g>
<defs>
<clipPath id="clip0">
<rect width="72" height="72" fill="white"/>
</clipPath>
</defs>
</svg>
