<svg width="83" height="83" viewBox="0 0 83 83" fill="none" xmlns="http://www.w3.org/2000/svg">
<g clip-path="url(#clip0)">
<mask id="path-1-inside-1" fill="white">
<path d="M83 34.8065H79.9918L75.5083 37.1655C75.0037 36.8871 74.4788 36.6511 73.9127 36.5093L68.2729 35.098V34.4567C70.7679 32.7154 72.2903 29.8386 72.2903 26.7742V24.4341C72.2903 19.2335 68.2154 14.8814 63.207 14.7297C62.9527 14.7232 62.7023 14.7323 62.4507 14.7448L63.9129 11.3215L56.8239 4.23445L52.645 6.95436C51.0573 6.06015 49.378 5.36399 47.634 4.8757L46.6019 0H36.3994L35.3673 4.87701C33.6233 5.3653 31.9427 6.06145 30.3563 6.95567L26.1774 4.23576L19.0943 11.3189L20.5317 14.7448C20.4768 14.7421 20.4245 14.7323 20.3696 14.731C17.8059 14.6565 15.3912 15.5919 13.5571 17.3725C11.7202 19.1518 10.7097 21.5396 10.7097 24.0968V26.7742C10.7097 29.8386 12.2308 32.7141 14.7258 34.4554V35.098L11.047 36.0177L4.37891 32.129H0V59.8687L13.1701 64.2581H15.7351L16.0554 63.1364L20.0924 65.5595C20.1584 67.7545 21.9188 69.5207 24.1118 69.5979C24.1889 71.7818 25.944 73.5369 28.1279 73.614C28.2051 75.7979 29.9602 77.553 32.1441 77.6301C32.2238 79.865 34.0541 81.6613 36.3073 81.6613C37.144 81.6613 37.9643 81.4005 38.6539 80.9357L39.8397 81.9829C40.5829 82.6372 41.5399 83 42.5334 83H42.7812C45.0089 83 46.8215 81.1992 46.8496 78.9786C49.0531 78.9505 50.8376 77.166 50.8657 74.9625C53.0706 74.9344 54.8564 73.1473 54.8819 70.9425C57.107 70.8902 58.9032 69.0723 58.9032 66.8348C58.9032 66.7002 58.8967 66.5675 58.883 66.4335L83 54.3759V34.8065ZM69.6129 24.4341V26.7742C69.6129 29.1503 68.3291 31.3701 66.2622 32.567L65.5929 32.954L65.5981 37.1904L72.2864 38.8611L57.5645 46.6097V43.0034C57.5645 41.2039 56.8376 39.556 55.6473 38.3382L60.2419 37.1904V32.9507L59.5739 32.5644C57.5083 31.3701 56.2258 29.1503 56.2258 26.7742V24.0968C56.2258 22.2711 56.9475 20.5637 58.2594 19.2923C59.57 18.0216 61.3087 17.3366 63.1266 17.4071C66.7028 17.5143 69.6129 20.667 69.6129 24.4341ZM43.5185 45.5573L37.4584 43.6205C34.6966 42.7354 31.7074 42.6034 28.8803 43.2296L28.1129 43.3996V43.0034C28.1129 41.1575 29.3647 39.5547 31.1544 39.1063L38.8226 37.1904V32.9507L38.1545 32.5644C36.0889 31.3701 34.8065 29.1503 34.8065 26.7742V24.0968C34.8065 22.2711 35.5281 20.5637 36.84 19.2923C38.1506 18.0216 39.9005 17.3366 41.7072 17.4071C45.2834 17.5143 48.1936 20.667 48.1936 24.4341V26.7742C48.1936 29.1503 46.9097 31.3701 44.8429 32.567L44.1735 32.954L44.1787 37.1904L51.8456 39.1063C53.6353 39.5547 54.8871 41.1575 54.8871 43.0034V48.0197L54.5563 48.1936H53.736L45.5057 45.8417C44.8572 45.658 44.1892 45.5828 43.5185 45.5573ZM28.4129 20.0362C30.9269 15.1651 35.987 12.0484 41.5 12.0484C46.9607 12.0484 51.9992 15.1232 54.5322 19.9283C53.8948 21.2063 53.5484 22.6214 53.5484 24.0968V26.7742C53.5484 29.8386 55.0695 32.7141 57.5645 34.4554V35.098L52.2097 36.4387L46.8535 35.098V34.4567C49.3486 32.7154 50.871 29.8386 50.871 26.7742V24.4341C50.871 19.2335 46.796 14.8814 41.7876 14.7297C39.2252 14.6546 36.8093 15.5906 34.9751 17.3712C33.1396 19.1518 32.129 21.5396 32.129 24.0968V26.7742C32.129 29.8386 33.6501 32.7141 36.1452 34.4554V35.098L30.7903 36.4387L25.4342 35.098V34.4567C27.9292 32.7154 29.4516 29.8386 29.4516 26.7742V24.4341C29.4516 22.8587 29.0725 21.3631 28.4129 20.0362ZM22.256 11.9399L26.533 7.66294L30.2975 10.1129L31.0178 9.671C32.8226 8.565 34.7731 7.7551 36.8145 7.26681L37.6381 7.06941L38.5696 2.67742H44.4317L45.3606 7.0681L46.1842 7.26485C48.2256 7.7538 50.1761 8.56369 51.9809 9.66969L52.7012 10.1116L56.4657 7.66163L60.7374 11.9346L59.2189 15.4899C58.1855 15.9344 57.2272 16.56 56.3931 17.3686C56.3382 17.4222 56.2912 17.4797 56.2376 17.5346C53.0836 12.521 47.5079 9.37097 41.5 9.37097C35.449 9.37097 29.8575 12.5504 26.7114 17.615C25.8695 16.7339 24.8681 16.0201 23.7582 15.5213L22.256 11.9399ZM17.4032 37.1904V32.9507L16.7352 32.5644C14.6696 31.3701 13.3871 29.1503 13.3871 26.7742V24.0968C13.3871 22.2711 14.1087 20.5637 15.4207 19.2923C16.7313 18.0216 18.4739 17.3366 20.2879 17.4071C23.8641 17.5143 26.7742 20.667 26.7742 24.4341V26.7742C26.7742 29.1503 25.4904 31.3701 23.4235 32.567L22.7541 32.954L22.7594 37.1904L27.3527 38.3382C26.1624 39.556 25.4355 41.2039 25.4355 43.0034V43.995L21.2599 44.9233L21.3684 44.5441L21.4194 42.07L14.3591 37.9512L17.4032 37.1904ZM2.67742 34.8065H3.65334L13.2812 40.4221L8.42315 59.8537L2.67742 57.9378V34.8065ZM13.6041 61.5806L10.9692 60.7028L15.6887 41.8268L18.7419 43.6074V43.9898L13.7165 61.5806H13.6041ZM22.7581 65.4347C22.7581 65.0398 22.9176 64.6529 23.1973 64.3731L25.5505 62.0199C25.8303 61.7401 26.2173 61.5806 26.6121 61.5806C27.4396 61.5806 28.1129 62.2539 28.1129 63.0815C28.1129 63.4763 27.9534 63.8633 27.6736 64.143L25.3204 66.4962C25.0407 66.776 24.6537 66.9355 24.2589 66.9355C23.4313 66.9355 22.7581 66.2622 22.7581 65.4347ZM26.7742 69.4508C26.7742 69.056 26.9337 68.669 27.2135 68.3892L29.5667 66.036C29.8464 65.7563 30.2334 65.5968 30.6282 65.5968C31.4558 65.5968 32.129 66.2701 32.129 67.0976C32.129 67.4924 31.9695 67.8794 31.6898 68.1591L29.3366 70.5124C29.0568 70.7921 28.6698 70.9516 28.275 70.9516C27.4475 70.9516 26.7742 70.2783 26.7742 69.4508ZM30.7903 73.4669C30.7903 73.0721 30.9498 72.6851 31.2296 72.4054L33.5828 70.0522C33.8626 69.7724 34.2495 69.6129 34.6443 69.6129C35.4719 69.6129 36.1452 70.2862 36.1452 71.1137C36.1452 71.5085 35.9857 71.8955 35.7059 72.1753L33.3527 74.5285C33.0729 74.8083 32.686 74.9677 32.2911 74.9677C31.4636 74.9677 30.7903 74.2945 30.7903 73.4669ZM36.3073 78.9839C35.4797 78.9839 34.8065 78.3106 34.8065 77.4831C34.8065 77.0882 34.9659 76.7013 35.2457 76.4215L37.5989 74.0683C37.8787 73.7885 38.2657 73.629 38.6605 73.629C39.488 73.629 40.1613 74.3023 40.1613 75.1299C40.1613 75.5247 40.0018 75.9116 39.722 76.1914L37.3688 78.5446C37.0891 78.8244 36.7021 78.9839 36.3073 78.9839ZM42.7812 80.3226H42.5334C42.1922 80.3226 41.8654 80.1984 41.6111 79.9729L40.6097 79.0898L41.615 78.0844C41.9739 77.7256 42.2524 77.2987 42.4583 76.8405L43.6754 77.8537C43.9937 78.1191 44.1774 78.51 44.1774 78.9264C44.1774 79.6964 43.5512 80.3226 42.7812 80.3226ZM54.7864 68.2742H54.555C54.2191 68.2742 53.8909 68.1552 53.634 67.9395L46.3744 61.8898L44.6592 63.9476L51.709 69.8214C52.026 70.0868 52.2097 70.4777 52.2097 70.8941C52.2097 71.6641 51.5835 72.2903 50.8134 72.2903H50.5213C50.1964 72.2903 49.8787 72.1753 49.6283 71.9661L42.357 65.9073L40.6417 67.965L47.6915 73.8395C48.0099 74.1029 48.1936 74.4938 48.1936 74.9102C48.1936 75.6802 47.5673 76.3064 46.7973 76.3064C46.2835 76.3064 45.7828 76.1241 45.3887 75.7966L42.4008 73.3061C41.7425 71.9609 40.3901 71.0229 38.8062 70.9667C38.7291 68.7827 36.974 67.0276 34.7901 66.9505C34.713 64.7666 32.9579 63.0115 30.774 62.9344C30.6955 60.6995 28.8653 58.9032 26.6121 58.9032C25.512 58.9032 24.4354 59.349 23.6575 60.1269L21.3043 62.4801C21.1638 62.6206 21.0474 62.7801 20.9291 62.9383L16.8169 60.4707L20.4219 47.8536L29.4595 45.8443C31.8303 45.3141 34.3299 45.4292 36.6419 46.1691L38.6141 46.7999L31.9284 50.1428C30.4007 50.9082 29.4516 52.445 29.4516 54.1537V54.4184C29.4516 56.8912 31.4636 58.9032 33.9364 58.9032C34.7489 58.9032 35.5484 58.6823 36.2432 58.2633L41.2281 55.2741C42.2295 54.674 43.5734 54.8054 44.4382 55.5833L55.7493 65.7628C56.0519 66.0373 56.2258 66.4269 56.2258 66.8348C56.2258 67.629 55.5806 68.2742 54.7864 68.2742ZM80.3226 52.7208L57.7691 63.9986C57.6959 63.9208 57.6194 63.8469 57.539 63.775L46.2299 53.5955C45.239 52.7012 43.9578 52.2097 42.623 52.2097C41.6471 52.2097 40.6888 52.4751 39.8495 52.9784L34.8627 55.9689C34.5829 56.1376 34.2633 56.2258 33.9364 56.2258C32.9389 56.2258 32.129 55.4159 32.129 54.4184V54.1537C32.129 53.4641 32.5121 52.8457 33.1278 52.5378L40.5953 48.8041C41.8732 48.1641 43.3904 48.021 44.7677 48.4171L53.1804 50.82L55.2179 50.871L80.3226 37.6577V52.7208Z"/>
</mask>
<path d="M83 34.8065H79.9918L75.5083 37.1655C75.0037 36.8871 74.4788 36.6511 73.9127 36.5093L68.2729 35.098V34.4567C70.7679 32.7154 72.2903 29.8386 72.2903 26.7742V24.4341C72.2903 19.2335 68.2154 14.8814 63.207 14.7297C62.9527 14.7232 62.7023 14.7323 62.4507 14.7448L63.9129 11.3215L56.8239 4.23445L52.645 6.95436C51.0573 6.06015 49.378 5.36399 47.634 4.8757L46.6019 0H36.3994L35.3673 4.87701C33.6233 5.3653 31.9427 6.06145 30.3563 6.95567L26.1774 4.23576L19.0943 11.3189L20.5317 14.7448C20.4768 14.7421 20.4245 14.7323 20.3696 14.731C17.8059 14.6565 15.3912 15.5919 13.5571 17.3725C11.7202 19.1518 10.7097 21.5396 10.7097 24.0968V26.7742C10.7097 29.8386 12.2308 32.7141 14.7258 34.4554V35.098L11.047 36.0177L4.37891 32.129H0V59.8687L13.1701 64.2581H15.7351L16.0554 63.1364L20.0924 65.5595C20.1584 67.7545 21.9188 69.5207 24.1118 69.5979C24.1889 71.7818 25.944 73.5369 28.1279 73.614C28.2051 75.7979 29.9602 77.553 32.1441 77.6301C32.2238 79.865 34.0541 81.6613 36.3073 81.6613C37.144 81.6613 37.9643 81.4005 38.6539 80.9357L39.8397 81.9829C40.5829 82.6372 41.5399 83 42.5334 83H42.7812C45.0089 83 46.8215 81.1992 46.8496 78.9786C49.0531 78.9505 50.8376 77.166 50.8657 74.9625C53.0706 74.9344 54.8564 73.1473 54.8819 70.9425C57.107 70.8902 58.9032 69.0723 58.9032 66.8348C58.9032 66.7002 58.8967 66.5675 58.883 66.4335L83 54.3759V34.8065ZM69.6129 24.4341V26.7742C69.6129 29.1503 68.3291 31.3701 66.2622 32.567L65.5929 32.954L65.5981 37.1904L72.2864 38.8611L57.5645 46.6097V43.0034C57.5645 41.2039 56.8376 39.556 55.6473 38.3382L60.2419 37.1904V32.9507L59.5739 32.5644C57.5083 31.3701 56.2258 29.1503 56.2258 26.7742V24.0968C56.2258 22.2711 56.9475 20.5637 58.2594 19.2923C59.57 18.0216 61.3087 17.3366 63.1266 17.4071C66.7028 17.5143 69.6129 20.667 69.6129 24.4341ZM43.5185 45.5573L37.4584 43.6205C34.6966 42.7354 31.7074 42.6034 28.8803 43.2296L28.1129 43.3996V43.0034C28.1129 41.1575 29.3647 39.5547 31.1544 39.1063L38.8226 37.1904V32.9507L38.1545 32.5644C36.0889 31.3701 34.8065 29.1503 34.8065 26.7742V24.0968C34.8065 22.2711 35.5281 20.5637 36.84 19.2923C38.1506 18.0216 39.9005 17.3366 41.7072 17.4071C45.2834 17.5143 48.1936 20.667 48.1936 24.4341V26.7742C48.1936 29.1503 46.9097 31.3701 44.8429 32.567L44.1735 32.954L44.1787 37.1904L51.8456 39.1063C53.6353 39.5547 54.8871 41.1575 54.8871 43.0034V48.0197L54.5563 48.1936H53.736L45.5057 45.8417C44.8572 45.658 44.1892 45.5828 43.5185 45.5573ZM28.4129 20.0362C30.9269 15.1651 35.987 12.0484 41.5 12.0484C46.9607 12.0484 51.9992 15.1232 54.5322 19.9283C53.8948 21.2063 53.5484 22.6214 53.5484 24.0968V26.7742C53.5484 29.8386 55.0695 32.7141 57.5645 34.4554V35.098L52.2097 36.4387L46.8535 35.098V34.4567C49.3486 32.7154 50.871 29.8386 50.871 26.7742V24.4341C50.871 19.2335 46.796 14.8814 41.7876 14.7297C39.2252 14.6546 36.8093 15.5906 34.9751 17.3712C33.1396 19.1518 32.129 21.5396 32.129 24.0968V26.7742C32.129 29.8386 33.6501 32.7141 36.1452 34.4554V35.098L30.7903 36.4387L25.4342 35.098V34.4567C27.9292 32.7154 29.4516 29.8386 29.4516 26.7742V24.4341C29.4516 22.8587 29.0725 21.3631 28.4129 20.0362ZM22.256 11.9399L26.533 7.66294L30.2975 10.1129L31.0178 9.671C32.8226 8.565 34.7731 7.7551 36.8145 7.26681L37.6381 7.06941L38.5696 2.67742H44.4317L45.3606 7.0681L46.1842 7.26485C48.2256 7.7538 50.1761 8.56369 51.9809 9.66969L52.7012 10.1116L56.4657 7.66163L60.7374 11.9346L59.2189 15.4899C58.1855 15.9344 57.2272 16.56 56.3931 17.3686C56.3382 17.4222 56.2912 17.4797 56.2376 17.5346C53.0836 12.521 47.5079 9.37097 41.5 9.37097C35.449 9.37097 29.8575 12.5504 26.7114 17.615C25.8695 16.7339 24.8681 16.0201 23.7582 15.5213L22.256 11.9399ZM17.4032 37.1904V32.9507L16.7352 32.5644C14.6696 31.3701 13.3871 29.1503 13.3871 26.7742V24.0968C13.3871 22.2711 14.1087 20.5637 15.4207 19.2923C16.7313 18.0216 18.4739 17.3366 20.2879 17.4071C23.8641 17.5143 26.7742 20.667 26.7742 24.4341V26.7742C26.7742 29.1503 25.4904 31.3701 23.4235 32.567L22.7541 32.954L22.7594 37.1904L27.3527 38.3382C26.1624 39.556 25.4355 41.2039 25.4355 43.0034V43.995L21.2599 44.9233L21.3684 44.5441L21.4194 42.07L14.3591 37.9512L17.4032 37.1904ZM2.67742 34.8065H3.65334L13.2812 40.4221L8.42315 59.8537L2.67742 57.9378V34.8065ZM13.6041 61.5806L10.9692 60.7028L15.6887 41.8268L18.7419 43.6074V43.9898L13.7165 61.5806H13.6041ZM22.7581 65.4347C22.7581 65.0398 22.9176 64.6529 23.1973 64.3731L25.5505 62.0199C25.8303 61.7401 26.2173 61.5806 26.6121 61.5806C27.4396 61.5806 28.1129 62.2539 28.1129 63.0815C28.1129 63.4763 27.9534 63.8633 27.6736 64.143L25.3204 66.4962C25.0407 66.776 24.6537 66.9355 24.2589 66.9355C23.4313 66.9355 22.7581 66.2622 22.7581 65.4347ZM26.7742 69.4508C26.7742 69.056 26.9337 68.669 27.2135 68.3892L29.5667 66.036C29.8464 65.7563 30.2334 65.5968 30.6282 65.5968C31.4558 65.5968 32.129 66.2701 32.129 67.0976C32.129 67.4924 31.9695 67.8794 31.6898 68.1591L29.3366 70.5124C29.0568 70.7921 28.6698 70.9516 28.275 70.9516C27.4475 70.9516 26.7742 70.2783 26.7742 69.4508ZM30.7903 73.4669C30.7903 73.0721 30.9498 72.6851 31.2296 72.4054L33.5828 70.0522C33.8626 69.7724 34.2495 69.6129 34.6443 69.6129C35.4719 69.6129 36.1452 70.2862 36.1452 71.1137C36.1452 71.5085 35.9857 71.8955 35.7059 72.1753L33.3527 74.5285C33.0729 74.8083 32.686 74.9677 32.2911 74.9677C31.4636 74.9677 30.7903 74.2945 30.7903 73.4669ZM36.3073 78.9839C35.4797 78.9839 34.8065 78.3106 34.8065 77.4831C34.8065 77.0882 34.9659 76.7013 35.2457 76.4215L37.5989 74.0683C37.8787 73.7885 38.2657 73.629 38.6605 73.629C39.488 73.629 40.1613 74.3023 40.1613 75.1299C40.1613 75.5247 40.0018 75.9116 39.722 76.1914L37.3688 78.5446C37.0891 78.8244 36.7021 78.9839 36.3073 78.9839ZM42.7812 80.3226H42.5334C42.1922 80.3226 41.8654 80.1984 41.6111 79.9729L40.6097 79.0898L41.615 78.0844C41.9739 77.7256 42.2524 77.2987 42.4583 76.8405L43.6754 77.8537C43.9937 78.1191 44.1774 78.51 44.1774 78.9264C44.1774 79.6964 43.5512 80.3226 42.7812 80.3226ZM54.7864 68.2742H54.555C54.2191 68.2742 53.8909 68.1552 53.634 67.9395L46.3744 61.8898L44.6592 63.9476L51.709 69.8214C52.026 70.0868 52.2097 70.4777 52.2097 70.8941C52.2097 71.6641 51.5835 72.2903 50.8134 72.2903H50.5213C50.1964 72.2903 49.8787 72.1753 49.6283 71.9661L42.357 65.9073L40.6417 67.965L47.6915 73.8395C48.0099 74.1029 48.1936 74.4938 48.1936 74.9102C48.1936 75.6802 47.5673 76.3064 46.7973 76.3064C46.2835 76.3064 45.7828 76.1241 45.3887 75.7966L42.4008 73.3061C41.7425 71.9609 40.3901 71.0229 38.8062 70.9667C38.7291 68.7827 36.974 67.0276 34.7901 66.9505C34.713 64.7666 32.9579 63.0115 30.774 62.9344C30.6955 60.6995 28.8653 58.9032 26.6121 58.9032C25.512 58.9032 24.4354 59.349 23.6575 60.1269L21.3043 62.4801C21.1638 62.6206 21.0474 62.7801 20.9291 62.9383L16.8169 60.4707L20.4219 47.8536L29.4595 45.8443C31.8303 45.3141 34.3299 45.4292 36.6419 46.1691L38.6141 46.7999L31.9284 50.1428C30.4007 50.9082 29.4516 52.445 29.4516 54.1537V54.4184C29.4516 56.8912 31.4636 58.9032 33.9364 58.9032C34.7489 58.9032 35.5484 58.6823 36.2432 58.2633L41.2281 55.2741C42.2295 54.674 43.5734 54.8054 44.4382 55.5833L55.7493 65.7628C56.0519 66.0373 56.2258 66.4269 56.2258 66.8348C56.2258 67.629 55.5806 68.2742 54.7864 68.2742ZM80.3226 52.7208L57.7691 63.9986C57.6959 63.9208 57.6194 63.8469 57.539 63.775L46.2299 53.5955C45.239 52.7012 43.9578 52.2097 42.623 52.2097C41.6471 52.2097 40.6888 52.4751 39.8495 52.9784L34.8627 55.9689C34.5829 56.1376 34.2633 56.2258 33.9364 56.2258C32.9389 56.2258 32.129 55.4159 32.129 54.4184V54.1537C32.129 53.4641 32.5121 52.8457 33.1278 52.5378L40.5953 48.8041C41.8732 48.1641 43.3904 48.021 44.7677 48.4171L53.1804 50.82L55.2179 50.871L80.3226 37.6577V52.7208Z" fill="#6B6969" stroke="white" stroke-width="0.6" mask="url(#path-1-inside-1)"/>
</g>
<defs>
<clipPath id="clip0">
<rect width="83" height="83" fill="white"/>
</clipPath>
</defs>
</svg>
